<svg viewBox="0 0 100 100" xmlns="http://www.w3.org/2000/svg">
    <g fill="#ea580c">
        <polygon points="30,10 70,10 30,30" opacity="1.0" />
        <polygon points="10,30 30,30 10,70" opacity="1.0" />
        <polygon points="30,90 30,70 70,90" opacity="1.0" />
        <polygon points="90,70 70,70 90,50" opacity="1.0" />
        <polygon points="70,50 70,70 50,50" opacity="1.0" />
        <polygon points="70,10 70,30 30,30" opacity="0.6" />
        <polygon points="30,30 30,70 10,70" opacity="0.6" />
        <polygon points="30,70 70,70 70,90" opacity="0.6" />
        <polygon points="70,70 70,50 90,50" opacity="0.6" />
        <polygon points="70,10 90,30 70,30" opacity="0.3" />
        <polygon points="30,10 30,30 10,30" opacity="0.3" />
        <polygon points="10,70 30,70 30,90" opacity="0.3" />
        <polygon points="70,90 70,70 90,70" opacity="0.3" />
    </g>
</svg>
