<svg id="visual" viewBox="0 0 540 960" width="540" height="960" xmlns="http://www.w3.org/2000/svg" xmlns:xlink="http://www.w3.org/1999/xlink" version="1.1"><rect x="0" y="0" width="540" height="960" fill="#001220"></rect><defs><linearGradient id="grad1_0" x1="0%" y1="100%" x2="100%" y2="0%"><stop offset="30%" stop-color="#001220" stop-opacity="1"></stop><stop offset="70%" stop-color="#001220" stop-opacity="1"></stop></linearGradient></defs><defs><linearGradient id="grad2_0" x1="0%" y1="100%" x2="100%" y2="0%"><stop offset="30%" stop-color="#001220" stop-opacity="1"></stop><stop offset="70%" stop-color="#001220" stop-opacity="1"></stop></linearGradient></defs><g transform="translate(540, 960)"><path d="M-351 0C-348.7 -31.1 -346.4 -62.2 -335.2 -89.8C-323.9 -117.4 -303.8 -141.5 -286.7 -165.5C-269.5 -189.5 -255.4 -213.6 -238.3 -238.3C-221.2 -263 -201.1 -288.4 -175.5 -304C-149.9 -319.5 -118.9 -325.1 -88.8 -331.3C-58.6 -337.5 -29.3 -344.2 0 -351L0 0Z" fill="#FBAE3C"></path></g><g transform="translate(0, 0)"><path d="M351 0C344.9 30 338.8 60 329.4 88.3C319.9 116.5 307.2 143 292.7 169C278.3 195 262.2 220.5 241.8 241.8C221.5 263.2 197 280.3 171.5 297C146 313.8 119.6 330.1 90.8 339C62.1 348 31.1 349.5 0 351L0 0Z" fill="#FBAE3C"></path></g></svg>