<svg id="visual" viewBox="0 0 540 960" width="540" height="960" xmlns="http://www.w3.org/2000/svg" xmlns:xlink="http://www.w3.org/1999/xlink" version="1.1"><rect x="0" y="0" width="540" height="960" fill="#001220"></rect><g fill="#A7233A"><circle r="62" cx="522" cy="100"></circle><circle r="27" cx="62" cy="953"></circle><circle r="37" cx="358" cy="892"></circle><circle r="38" cx="401" cy="748"></circle><circle r="34" cx="533" cy="896"></circle><circle r="28" cx="85" cy="505"></circle><circle r="42" cx="184" cy="679"></circle><circle r="44" cx="175" cy="861"></circle><circle r="27" cx="538" cy="387"></circle><circle r="43" cx="312" cy="6"></circle><circle r="35" cx="391" cy="547"></circle><circle r="59" cx="228" cy="453"></circle><circle r="33" cx="76" cy="67"></circle><circle r="32" cx="286" cy="325"></circle><circle r="38" cx="194" cy="161"></circle><circle r="26" cx="534" cy="758"></circle><circle r="53" cx="21" cy="224"></circle><circle r="46" cx="137" cy="286"></circle><circle r="27" cx="44" cy="693"></circle><circle r="46" cx="307" cy="650"></circle><circle r="57" cx="4" cy="828"></circle><circle r="44" cx="449" cy="276"></circle><circle r="50" cx="535" cy="566"></circle><circle r="34" cx="346" cy="139"></circle><circle r="43" cx="5" cy="350"></circle><circle r="56" cx="279" cy="785"></circle><circle r="43" cx="384" cy="402"></circle></g></svg>