<svg id="visual" viewBox="0 0 960 540" width="960" height="540" xmlns="http://www.w3.org/2000/svg" xmlns:xlink="http://www.w3.org/1999/xlink" version="1.1"><rect x="0" y="0" width="960" height="540" fill="#001220"></rect><g fill="#A7233A"><circle r="62" cx="219" cy="462"></circle><circle r="27" cx="160" cy="5"></circle><circle r="36" cx="759" cy="408"></circle><circle r="30" cx="469" cy="534"></circle><circle r="49" cx="689" cy="303"></circle><circle r="47" cx="671" cy="155"></circle><circle r="53" cx="270" cy="110"></circle><circle r="54" cx="87" cy="131"></circle><circle r="38" cx="394" cy="235"></circle><circle r="37" cx="20" cy="309"></circle><circle r="47" cx="583" cy="50"></circle><circle r="40" cx="359" cy="403"></circle><circle r="29" cx="159" cy="241"></circle><circle r="51" cx="843" cy="274"></circle><circle r="30" cx="951" cy="533"></circle><circle r="47" cx="549" cy="367"></circle><circle r="36" cx="904" cy="122"></circle><circle r="52" cx="386" cy="12"></circle><circle r="54" cx="532" cy="243"></circle><circle r="36" cx="16" cy="477"></circle><circle r="59" cx="789" cy="34"></circle><circle r="39" cx="344" cy="526"></circle><circle r="36" cx="938" cy="386"></circle><circle r="28" cx="662" cy="497"></circle><circle r="57" cx="481" cy="126"></circle><circle r="44" cx="33" cy="13"></circle><circle r="26" cx="135" cy="363"></circle><circle r="57" cx="260" cy="317"></circle><circle r="30" cx="823" cy="539"></circle></g></svg>