<svg id="visual" viewBox="0 0 540 960" width="540" height="960" xmlns="http://www.w3.org/2000/svg" xmlns:xlink="http://www.w3.org/1999/xlink" version="1.1"><rect x="0" y="0" width="540" height="960" fill="#001220"></rect><path d="M0 610L10 615.8C20 621.7 40 633.3 60 628.8C80 624.3 100 603.7 120 593.2C140 582.7 160 582.3 180 592.8C200 603.3 220 624.7 240 626.5C260 628.3 280 610.7 300 617.3C320 624 340 655 360 665.5C380 676 400 666 420 648.7C440 631.3 460 606.7 480 599.5C500 592.3 520 602.7 530 607.8L540 613L540 961L530 961C520 961 500 961 480 961C460 961 440 961 420 961C400 961 380 961 360 961C340 961 320 961 300 961C280 961 260 961 240 961C220 961 200 961 180 961C160 961 140 961 120 961C100 961 80 961 60 961C40 961 20 961 10 961L0 961Z" fill="#fa7268"></path><path d="M0 736L10 735.3C20 734.7 40 733.3 60 729.2C80 725 100 718 120 727.3C140 736.7 160 762.3 180 765.8C200 769.3 220 750.7 240 744.2C260 737.7 280 743.3 300 737.8C320 732.3 340 715.7 360 710.3C380 705 400 711 420 718.5C440 726 460 735 480 731C500 727 520 710 530 701.5L540 693L540 961L530 961C520 961 500 961 480 961C460 961 440 961 420 961C400 961 380 961 360 961C340 961 320 961 300 961C280 961 260 961 240 961C220 961 200 961 180 961C160 961 140 961 120 961C100 961 80 961 60 961C40 961 20 961 10 961L0 961Z" fill="#e34c67"></path><path d="M0 860L10 855.3C20 850.7 40 841.3 60 841.2C80 841 100 850 120 849.8C140 849.7 160 840.3 180 829.7C200 819 220 807 240 807.8C260 808.7 280 822.3 300 825.3C320 828.3 340 820.7 360 827.3C380 834 400 855 420 861C440 867 460 858 480 848.7C500 839.3 520 829.7 530 824.8L540 820L540 961L530 961C520 961 500 961 480 961C460 961 440 961 420 961C400 961 380 961 360 961C340 961 320 961 300 961C280 961 260 961 240 961C220 961 200 961 180 961C160 961 140 961 120 961C100 961 80 961 60 961C40 961 20 961 10 961L0 961Z" fill="#c62368"></path></svg>