<svg id="visual" viewBox="0 0 960 540" width="960" height="540" xmlns="http://www.w3.org/2000/svg" xmlns:xlink="http://www.w3.org/1999/xlink" version="1.1"><rect x="0" y="0" width="960" height="540" fill="#001220"></rect><path d="M0 342L17.8 345.3C35.7 348.7 71.3 355.3 106.8 353C142.3 350.7 177.7 339.3 213.2 333.5C248.7 327.7 284.3 327.3 320 333.2C355.7 339 391.3 351 426.8 352C462.3 353 497.7 343 533.2 346.7C568.7 350.3 604.3 367.7 640 373.5C675.7 379.3 711.3 373.7 746.8 364C782.3 354.3 817.7 340.7 853.2 336.7C888.7 332.7 924.3 338.3 942.2 341.2L960 344L960 541L942.2 541C924.3 541 888.7 541 853.2 541C817.7 541 782.3 541 746.8 541C711.3 541 675.7 541 640 541C604.3 541 568.7 541 533.2 541C497.7 541 462.3 541 426.8 541C391.3 541 355.7 541 320 541C284.3 541 248.7 541 213.2 541C177.7 541 142.3 541 106.8 541C71.3 541 35.7 541 17.8 541L0 541Z" fill="#fa7268"></path><path d="M0 414L17.8 413.5C35.7 413 71.3 412 106.8 409.5C142.3 407 177.7 403 213.2 408.3C248.7 413.7 284.3 428.3 320 430.5C355.7 432.7 391.3 422.3 426.8 418.7C462.3 415 497.7 418 533.2 414.8C568.7 411.7 604.3 402.3 640 399.3C675.7 396.3 711.3 399.7 746.8 403.8C782.3 408 817.7 413 853.2 410.8C888.7 408.7 924.3 399.3 942.2 394.7L960 390L960 541L942.2 541C924.3 541 888.7 541 853.2 541C817.7 541 782.3 541 746.8 541C711.3 541 675.7 541 640 541C604.3 541 568.7 541 533.2 541C497.7 541 462.3 541 426.8 541C391.3 541 355.7 541 320 541C284.3 541 248.7 541 213.2 541C177.7 541 142.3 541 106.8 541C71.3 541 35.7 541 17.8 541L0 541Z" fill="#e34c67"></path><path d="M0 483L17.8 480.5C35.7 478 71.3 473 106.8 473C142.3 473 177.7 478 213.2 477.8C248.7 477.7 284.3 472.3 320 466.3C355.7 460.3 391.3 453.7 426.8 454.2C462.3 454.7 497.7 462.3 533.2 464C568.7 465.7 604.3 461.3 640 465C675.7 468.7 711.3 480.3 746.8 483.7C782.3 487 817.7 482 853.2 476.8C888.7 471.7 924.3 466.3 942.2 463.7L960 461L960 541L942.2 541C924.3 541 888.7 541 853.2 541C817.7 541 782.3 541 746.8 541C711.3 541 675.7 541 640 541C604.3 541 568.7 541 533.2 541C497.7 541 462.3 541 426.8 541C391.3 541 355.7 541 320 541C284.3 541 248.7 541 213.2 541C177.7 541 142.3 541 106.8 541C71.3 541 35.7 541 17.8 541L0 541Z" fill="#c62368"></path></svg>