<svg id="visual" viewBox="0 0 960 540" width="960" height="540" xmlns="http://www.w3.org/2000/svg" xmlns:xlink="http://www.w3.org/1999/xlink" version="1.1"><rect x="0" y="0" width="960" height="540" fill="#931C1C"></rect><path d="M0 398L137 319L274 356L411 396L549 355L686 395L823 363L960 334L960 541L823 541L686 541L549 541L411 541L274 541L137 541L0 541Z" fill="#fca25a"></path><path d="M0 426L137 407L274 403L411 399L549 368L686 368L823 412L960 424L960 541L823 541L686 541L549 541L411 541L274 541L137 541L0 541Z" fill="#f98b37"></path><path d="M0 418L137 432L274 413L411 440L549 394L686 441L823 395L960 421L960 541L823 541L686 541L549 541L411 541L274 541L137 541L0 541Z" fill="#f5730a"></path><path d="M0 441L137 467L274 465L411 463L549 435L686 474L823 459L960 484L960 541L823 541L686 541L549 541L411 541L274 541L137 541L0 541Z" fill="#d3640b"></path><path d="M0 516L137 475L274 484L411 478L549 474L686 495L823 489L960 492L960 541L823 541L686 541L549 541L411 541L274 541L137 541L0 541Z" fill="#b3550c"></path></svg>