<svg id="visual" viewBox="0 0 540 960" width="540" height="960" xmlns="http://www.w3.org/2000/svg" xmlns:xlink="http://www.w3.org/1999/xlink" version="1.1"><rect x="0" y="0" width="540" height="960" fill="#931C1C"></rect><path d="M0 709L77 568L154 634L231 704L309 632L386 702L463 647L540 595L540 961L463 961L386 961L309 961L231 961L154 961L77 961L0 961Z" fill="#fca25a"></path><path d="M0 759L77 724L154 718L231 710L309 655L386 655L463 733L540 754L540 961L463 961L386 961L309 961L231 961L154 961L77 961L0 961Z" fill="#f98b37"></path><path d="M0 744L77 769L154 734L231 782L309 702L386 784L463 702L540 749L540 961L463 961L386 961L309 961L231 961L154 961L77 961L0 961Z" fill="#f5730a"></path><path d="M0 784L77 831L154 828L231 824L309 774L386 843L463 816L540 862L540 961L463 961L386 961L309 961L231 961L154 961L77 961L0 961Z" fill="#d3640b"></path><path d="M0 917L77 845L154 862L231 850L309 844L386 881L463 870L540 876L540 961L463 961L386 961L309 961L231 961L154 961L77 961L0 961Z" fill="#b3550c"></path></svg>