<svg id="visual" viewBox="0 0 540 960" width="540" height="960" xmlns="http://www.w3.org/2000/svg" xmlns:xlink="http://www.w3.org/1999/xlink" version="1.1"><rect width="540" height="960" fill="#001829"></rect><g><g transform="translate(375 254)"><path d="M0 -70L54.7 -43.6L68.2 15.6L30.4 63.1L-30.4 63.1L-68.2 15.6L-54.7 -43.6Z" fill="none" stroke="#297EA6" stroke-width="2"></path></g><g transform="translate(223 660)"><path d="M0 -52L40.7 -32.4L50.7 11.6L22.6 46.9L-22.6 46.9L-50.7 11.6L-40.7 -32.4Z" fill="none" stroke="#297EA6" stroke-width="2"></path></g><g transform="translate(187 113)"><path d="M0 -55L43 -34.3L53.6 12.2L23.9 49.6L-23.9 49.6L-53.6 12.2L-43 -34.3Z" fill="none" stroke="#297EA6" stroke-width="2"></path></g><g transform="translate(396 634)"><path d="M0 -54L42.2 -33.7L52.6 12L23.4 48.7L-23.4 48.7L-52.6 12L-42.2 -33.7Z" fill="none" stroke="#297EA6" stroke-width="2"></path></g><g transform="translate(500 462)"><path d="M0 -56L43.8 -34.9L54.6 12.5L24.3 50.5L-24.3 50.5L-54.6 12.5L-43.8 -34.9Z" fill="none" stroke="#297EA6" stroke-width="2"></path></g><g transform="translate(25 19)"><path d="M0 -69L53.9 -43L67.3 15.4L29.9 62.2L-29.9 62.2L-67.3 15.4L-53.9 -43Z" fill="none" stroke="#297EA6" stroke-width="2"></path></g><g transform="translate(451 807)"><path d="M0 -65L50.8 -40.5L63.4 14.5L28.2 58.6L-28.2 58.6L-63.4 14.5L-50.8 -40.5Z" fill="none" stroke="#297EA6" stroke-width="2"></path></g><g transform="translate(357 454)"><path d="M0 -61L47.7 -38L59.5 13.6L26.5 55L-26.5 55L-59.5 13.6L-47.7 -38Z" fill="none" stroke="#297EA6" stroke-width="2"></path></g><g transform="translate(118 803)"><path d="M0 -62L48.5 -38.7L60.4 13.8L26.9 55.9L-26.9 55.9L-60.4 13.8L-48.5 -38.7Z" fill="none" stroke="#297EA6" stroke-width="2"></path></g><g transform="translate(137 411)"><path d="M0 -69L53.9 -43L67.3 15.4L29.9 62.2L-29.9 62.2L-67.3 15.4L-53.9 -43Z" fill="none" stroke="#297EA6" stroke-width="2"></path></g><g transform="translate(26 621)"><path d="M0 -55L43 -34.3L53.6 12.2L23.9 49.6L-23.9 49.6L-53.6 12.2L-43 -34.3Z" fill="none" stroke="#297EA6" stroke-width="2"></path></g><g transform="translate(260 847)"><path d="M0 -63L49.3 -39.3L61.4 14L27.3 56.8L-27.3 56.8L-61.4 14L-49.3 -39.3Z" fill="none" stroke="#297EA6" stroke-width="2"></path></g><g transform="translate(457 60)"><path d="M0 -54L42.2 -33.7L52.6 12L23.4 48.7L-23.4 48.7L-52.6 12L-42.2 -33.7Z" fill="none" stroke="#297EA6" stroke-width="2"></path></g><g transform="translate(8 291)"><path d="M0 -57L44.6 -35.5L55.6 12.7L24.7 51.4L-24.7 51.4L-55.6 12.7L-44.6 -35.5Z" fill="none" stroke="#297EA6" stroke-width="2"></path></g><g transform="translate(17 950)"><path d="M0 -65L50.8 -40.5L63.4 14.5L28.2 58.6L-28.2 58.6L-63.4 14.5L-50.8 -40.5Z" fill="none" stroke="#297EA6" stroke-width="2"></path></g><g transform="translate(304 32)"><path d="M0 -53L41.4 -33L51.7 11.8L23 47.8L-23 47.8L-51.7 11.8L-41.4 -33Z" fill="none" stroke="#297EA6" stroke-width="2"></path></g><g transform="translate(177 262)"><path d="M0 -52L40.7 -32.4L50.7 11.6L22.6 46.9L-22.6 46.9L-50.7 11.6L-40.7 -32.4Z" fill="none" stroke="#297EA6" stroke-width="2"></path></g><g transform="translate(533 941)"><path d="M0 -60L46.9 -37.4L58.5 13.4L26 54.1L-26 54.1L-58.5 13.4L-46.9 -37.4Z" fill="none" stroke="#297EA6" stroke-width="2"></path></g><g transform="translate(528 195)"><path d="M0 -67L52.4 -41.8L65.3 14.9L29.1 60.4L-29.1 60.4L-65.3 14.9L-52.4 -41.8Z" fill="none" stroke="#297EA6" stroke-width="2"></path></g></g></svg>