<svg id="visual" viewBox="0 0 960 540" width="960" height="540" xmlns="http://www.w3.org/2000/svg" xmlns:xlink="http://www.w3.org/1999/xlink" version="1.1"><rect width="960" height="540" fill="#001829"></rect><g><g transform="translate(650 427)"><path d="M0 -70L54.7 -43.6L68.2 15.6L30.4 63.1L-30.4 63.1L-68.2 15.6L-54.7 -43.6Z" fill="none" stroke="#297EA6" stroke-width="2"></path></g><g transform="translate(5 402)"><path d="M0 -59L46.1 -36.8L57.5 13.1L25.6 53.2L-25.6 53.2L-57.5 13.1L-46.1 -36.8Z" fill="none" stroke="#297EA6" stroke-width="2"></path></g><g transform="translate(744 162)"><path d="M0 -66L51.6 -41.2L64.3 14.7L28.6 59.5L-28.6 59.5L-64.3 14.7L-51.6 -41.2Z" fill="none" stroke="#297EA6" stroke-width="2"></path></g><g transform="translate(482 348)"><path d="M0 -63L49.3 -39.3L61.4 14L27.3 56.8L-27.3 56.8L-61.4 14L-49.3 -39.3Z" fill="none" stroke="#297EA6" stroke-width="2"></path></g><g transform="translate(279 432)"><path d="M0 -56L43.8 -34.9L54.6 12.5L24.3 50.5L-24.3 50.5L-54.6 12.5L-43.8 -34.9Z" fill="none" stroke="#297EA6" stroke-width="2"></path></g><g transform="translate(362 254)"><path d="M0 -55L43 -34.3L53.6 12.2L23.9 49.6L-23.9 49.6L-53.6 12.2L-43 -34.3Z" fill="none" stroke="#297EA6" stroke-width="2"></path></g><g transform="translate(265 11)"><path d="M0 -69L53.9 -43L67.3 15.4L29.9 62.2L-29.9 62.2L-67.3 15.4L-53.9 -43Z" fill="none" stroke="#297EA6" stroke-width="2"></path></g><g transform="translate(145 164)"><path d="M0 -68L53.2 -42.4L66.3 15.1L29.5 61.3L-29.5 61.3L-66.3 15.1L-53.2 -42.4Z" fill="none" stroke="#297EA6" stroke-width="2"></path></g><g transform="translate(698 24)"><path d="M0 -67L52.4 -41.8L65.3 14.9L29.1 60.4L-29.1 60.4L-65.3 14.9L-52.4 -41.8Z" fill="none" stroke="#297EA6" stroke-width="2"></path></g><g transform="translate(606 214)"><path d="M0 -61L47.7 -38L59.5 13.6L26.5 55L-26.5 55L-59.5 13.6L-47.7 -38Z" fill="none" stroke="#297EA6" stroke-width="2"></path></g><g transform="translate(881 369)"><path d="M0 -61L47.7 -38L59.5 13.6L26.5 55L-26.5 55L-59.5 13.6L-47.7 -38Z" fill="none" stroke="#297EA6" stroke-width="2"></path></g><g transform="translate(959 50)"><path d="M0 -69L53.9 -43L67.3 15.4L29.9 62.2L-29.9 62.2L-67.3 15.4L-53.9 -43Z" fill="none" stroke="#297EA6" stroke-width="2"></path></g><g transform="translate(33 23)"><path d="M0 -63L49.3 -39.3L61.4 14L27.3 56.8L-27.3 56.8L-61.4 14L-49.3 -39.3Z" fill="none" stroke="#297EA6" stroke-width="2"></path></g><g transform="translate(770 507)"><path d="M0 -69L53.9 -43L67.3 15.4L29.9 62.2L-29.9 62.2L-67.3 15.4L-53.9 -43Z" fill="none" stroke="#297EA6" stroke-width="2"></path></g><g transform="translate(958 493)"><path d="M0 -57L44.6 -35.5L55.6 12.7L24.7 51.4L-24.7 51.4L-55.6 12.7L-44.6 -35.5Z" fill="none" stroke="#297EA6" stroke-width="2"></path></g><g transform="translate(435 18)"><path d="M0 -67L52.4 -41.8L65.3 14.9L29.1 60.4L-29.1 60.4L-65.3 14.9L-52.4 -41.8Z" fill="none" stroke="#297EA6" stroke-width="2"></path></g><g transform="translate(468 156)"><path d="M0 -69L53.9 -43L67.3 15.4L29.9 62.2L-29.9 62.2L-67.3 15.4L-53.9 -43Z" fill="none" stroke="#297EA6" stroke-width="2"></path></g><g transform="translate(441 529)"><path d="M0 -54L42.2 -33.7L52.6 12L23.4 48.7L-23.4 48.7L-52.6 12L-42.2 -33.7Z" fill="none" stroke="#297EA6" stroke-width="2"></path></g><g transform="translate(897 228)"><path d="M0 -60L46.9 -37.4L58.5 13.4L26 54.1L-26 54.1L-58.5 13.4L-46.9 -37.4Z" fill="none" stroke="#297EA6" stroke-width="2"></path></g><g transform="translate(221 301)"><path d="M0 -67L52.4 -41.8L65.3 14.9L29.1 60.4L-29.1 60.4L-65.3 14.9L-52.4 -41.8Z" fill="none" stroke="#297EA6" stroke-width="2"></path></g><g transform="translate(103 521)"><path d="M0 -55L43 -34.3L53.6 12.2L23.9 49.6L-23.9 49.6L-53.6 12.2L-43 -34.3Z" fill="none" stroke="#297EA6" stroke-width="2"></path></g></g></svg>