<svg id="visual" viewBox="0 0 540 960" width="540" height="960" xmlns="http://www.w3.org/2000/svg" xmlns:xlink="http://www.w3.org/1999/xlink" version="1.1"><rect x="0" y="0" width="540" height="960" fill="#002233"></rect><path d="M0 715L25 715L25 776L49 776L49 721L74 721L74 789L98 789L98 760L123 760L123 654L147 654L147 707L172 707L172 665L196 665L196 736L221 736L221 682L245 682L245 750L270 750L270 791L295 791L295 767L319 767L319 662L344 662L344 783L368 783L368 659L393 659L393 686L417 686L417 676L442 676L442 778L466 778L466 715L491 715L491 686L515 686L515 762L540 762L540 737L540 961L540 961L515 961L515 961L491 961L491 961L466 961L466 961L442 961L442 961L417 961L417 961L393 961L393 961L368 961L368 961L344 961L344 961L319 961L319 961L295 961L295 961L270 961L270 961L245 961L245 961L221 961L221 961L196 961L196 961L172 961L172 961L147 961L147 961L123 961L123 961L98 961L98 961L74 961L74 961L49 961L49 961L25 961L25 961L0 961Z" fill="#0066FF" stroke-linecap="square" stroke-linejoin="miter"></path></svg>