<svg id="visual" viewBox="0 0 960 540" width="960" height="540" xmlns="http://www.w3.org/2000/svg" xmlns:xlink="http://www.w3.org/1999/xlink" version="1.1"><rect x="0" y="0" width="960" height="540" fill="#002233"></rect><path d="M0 402L44 402L44 436L87 436L87 405L131 405L131 444L175 444L175 427L218 427L218 368L262 368L262 398L305 398L305 373L349 373L349 413L393 413L393 383L436 383L436 422L480 422L480 444L524 444L524 431L567 431L567 372L611 372L611 440L655 440L655 370L698 370L698 386L742 386L742 380L785 380L785 437L829 437L829 402L873 402L873 385L916 385L916 428L960 428L960 414L960 541L960 541L916 541L916 541L873 541L873 541L829 541L829 541L785 541L785 541L742 541L742 541L698 541L698 541L655 541L655 541L611 541L611 541L567 541L567 541L524 541L524 541L480 541L480 541L436 541L436 541L393 541L393 541L349 541L349 541L305 541L305 541L262 541L262 541L218 541L218 541L175 541L175 541L131 541L131 541L87 541L87 541L44 541L44 541L0 541Z" fill="#0066FF" stroke-linecap="square" stroke-linejoin="miter"></path></svg>