<svg id="visual" viewBox="0 0 960 540" width="960" height="540" xmlns="http://www.w3.org/2000/svg" xmlns:xlink="http://www.w3.org/1999/xlink" version="1.1"><path d="M0 104L87 66L175 60L262 104L349 82L436 50L524 98L611 104L698 82L785 98L873 60L960 82L960 0L873 0L785 0L698 0L611 0L524 0L436 0L349 0L262 0L175 0L87 0L0 0Z" fill="#57deae"></path><path d="M0 249L87 152L175 217L262 174L349 195L436 298L524 233L611 233L698 282L785 244L873 195L960 212L960 80L873 58L785 96L698 80L611 102L524 96L436 48L349 80L262 102L175 58L87 64L0 102Z" fill="#3ad59e"></path><path d="M0 352L87 244L175 347L262 255L349 249L436 363L524 325L611 347L698 384L785 330L873 266L960 276L960 210L873 193L785 242L698 280L611 231L524 231L436 296L349 193L262 172L175 215L87 150L0 247Z" fill="#00cc8e"></path><path d="M0 401L87 330L175 428L262 330L349 314L436 449L524 379L611 433L698 417L785 363L873 298L960 368L960 274L873 264L785 328L698 382L611 345L524 323L436 361L349 247L262 253L175 345L87 242L0 350Z" fill="#00b07b"></path><path d="M0 541L87 541L175 541L262 541L349 541L436 541L524 541L611 541L698 541L785 541L873 541L960 541L960 366L873 296L785 361L698 415L611 431L524 377L436 447L349 312L262 328L175 426L87 328L0 399Z" fill="#009569"></path></svg>