<svg id="visual" viewBox="0 0 540 960" width="540" height="960" xmlns="http://www.w3.org/2000/svg" xmlns:xlink="http://www.w3.org/1999/xlink" version="1.1"><path d="M0 183L49 116L98 107L147 183L196 145L245 87L295 174L344 183L393 145L442 174L491 107L540 145L540 0L491 0L442 0L393 0L344 0L295 0L245 0L196 0L147 0L98 0L49 0L0 0Z" fill="#57deae"></path><path d="M0 443L49 270L98 385L147 308L196 347L245 529L295 414L344 414L393 500L442 433L491 347L540 375L540 143L491 105L442 172L393 143L344 181L295 172L245 85L196 143L147 181L98 105L49 114L0 181Z" fill="#3ad59e"></path><path d="M0 625L49 433L98 615L147 452L196 443L245 644L295 577L344 615L393 683L442 587L491 471L540 491L540 373L491 345L442 431L393 498L344 412L295 412L245 527L196 345L147 306L98 383L49 268L0 441Z" fill="#00cc8e"></path><path d="M0 711L49 587L98 759L147 587L196 558L245 798L295 673L344 769L393 740L442 644L491 529L540 654L540 489L491 469L442 585L393 681L344 613L295 575L245 642L196 441L147 450L98 613L49 431L0 623Z" fill="#00b07b"></path><path d="M0 961L49 961L98 961L147 961L196 961L245 961L295 961L344 961L393 961L442 961L491 961L540 961L540 652L491 527L442 642L393 738L344 767L295 671L245 796L196 556L147 585L98 757L49 585L0 709Z" fill="#009569"></path></svg>