<svg id="visual" viewBox="0 0 540 960" width="540" height="960" xmlns="http://www.w3.org/2000/svg" xmlns:xlink="http://www.w3.org/1999/xlink" version="1.1"><path d="M0 87L49 87L49 193L98 193L98 107L147 107L147 126L196 126L196 107L245 107L245 107L295 107L295 126L344 126L344 174L393 174L393 193L442 193L442 174L491 174L491 97L540 97L540 78L540 0L540 0L491 0L491 0L442 0L442 0L393 0L393 0L344 0L344 0L295 0L295 0L245 0L245 0L196 0L196 0L147 0L147 0L98 0L98 0L49 0L49 0L0 0Z" fill="#ffa096"></path><path d="M0 356L49 356L49 395L98 395L98 423L147 423L147 452L196 452L196 519L245 519L245 414L295 414L295 327L344 327L344 289L393 289L393 433L442 433L442 443L491 443L491 270L540 270L540 462L540 76L540 95L491 95L491 172L442 172L442 191L393 191L393 172L344 172L344 124L295 124L295 105L245 105L245 105L196 105L196 124L147 124L147 105L98 105L98 191L49 191L49 85L0 85Z" fill="#fd8a7f"></path><path d="M0 519L49 519L49 481L98 481L98 577L147 577L147 548L196 548L196 654L245 654L245 548L295 548L295 452L344 452L344 433L393 433L393 567L442 567L442 558L491 558L491 347L540 347L540 519L540 460L540 268L491 268L491 441L442 441L442 431L393 431L393 287L344 287L344 325L295 325L295 412L245 412L245 517L196 517L196 450L147 450L147 421L98 421L98 393L49 393L49 354L0 354Z" fill="#fa7268"></path><path d="M0 759L49 759L49 596L98 596L98 807L147 807L147 654L196 654L196 769L245 769L245 779L295 779L295 558L344 558L344 606L393 606L393 759L442 759L442 702L491 702L491 615L540 615L540 769L540 517L540 345L491 345L491 556L442 556L442 565L393 565L393 431L344 431L344 450L295 450L295 546L245 546L245 652L196 652L196 546L147 546L147 575L98 575L98 479L49 479L49 517L0 517Z" fill="#dd6056"></path><path d="M0 961L49 961L49 961L98 961L98 961L147 961L147 961L196 961L196 961L245 961L245 961L295 961L295 961L344 961L344 961L393 961L393 961L442 961L442 961L491 961L491 961L540 961L540 961L540 767L540 613L491 613L491 700L442 700L442 757L393 757L393 604L344 604L344 556L295 556L295 777L245 777L245 767L196 767L196 652L147 652L147 805L98 805L98 594L49 594L49 757L0 757Z" fill="#c04e45"></path></svg>