<svg id="visual" viewBox="0 0 960 540" width="960" height="540" xmlns="http://www.w3.org/2000/svg" xmlns:xlink="http://www.w3.org/1999/xlink" version="1.1"><path d="M0 50L87 50L87 109L175 109L175 60L262 60L262 71L349 71L349 60L436 60L436 60L524 60L524 71L611 71L611 98L698 98L698 109L785 109L785 98L873 98L873 55L960 55L960 44L960 0L960 0L873 0L873 0L785 0L785 0L698 0L698 0L611 0L611 0L524 0L524 0L436 0L436 0L349 0L349 0L262 0L262 0L175 0L175 0L87 0L87 0L0 0Z" fill="#ffa096"></path><path d="M0 201L87 201L87 222L175 222L175 239L262 239L262 255L349 255L349 293L436 293L436 233L524 233L524 185L611 185L611 163L698 163L698 244L785 244L785 249L873 249L873 152L960 152L960 260L960 42L960 53L873 53L873 96L785 96L785 107L698 107L698 96L611 96L611 69L524 69L524 58L436 58L436 58L349 58L349 69L262 69L262 58L175 58L175 107L87 107L87 48L0 48Z" fill="#fd8a7f"></path><path d="M0 293L87 293L87 271L175 271L175 325L262 325L262 309L349 309L349 368L436 368L436 309L524 309L524 255L611 255L611 244L698 244L698 320L785 320L785 314L873 314L873 195L960 195L960 293L960 258L960 150L873 150L873 247L785 247L785 242L698 242L698 161L611 161L611 183L524 183L524 231L436 231L436 291L349 291L349 253L262 253L262 237L175 237L175 220L87 220L87 199L0 199Z" fill="#fa7268"></path><path d="M0 428L87 428L87 336L175 336L175 455L262 455L262 368L349 368L349 433L436 433L436 438L524 438L524 314L611 314L611 341L698 341L698 428L785 428L785 395L873 395L873 347L960 347L960 433L960 291L960 193L873 193L873 312L785 312L785 318L698 318L698 242L611 242L611 253L524 253L524 307L436 307L436 366L349 366L349 307L262 307L262 323L175 323L175 269L87 269L87 291L0 291Z" fill="#dd6056"></path><path d="M0 541L87 541L87 541L175 541L175 541L262 541L262 541L349 541L349 541L436 541L436 541L524 541L524 541L611 541L611 541L698 541L698 541L785 541L785 541L873 541L873 541L960 541L960 541L960 431L960 345L873 345L873 393L785 393L785 426L698 426L698 339L611 339L611 312L524 312L524 436L436 436L436 431L349 431L349 366L262 366L262 453L175 453L175 334L87 334L87 426L0 426Z" fill="#c04e45"></path></svg>