<svg id="visual" viewBox="0 0 540 960" width="540" height="960" xmlns="http://www.w3.org/2000/svg" xmlns:xlink="http://www.w3.org/1999/xlink" version="1.1"><rect x="0" y="0" width="540" height="960" fill="#002233"></rect><path d="M144 0L151.3 22.8C158.7 45.7 173.3 91.3 165 137C156.7 182.7 125.3 228.3 127.5 274C129.7 319.7 165.3 365.3 163.5 411.2C161.7 457 122.3 503 119.7 548.8C117 594.7 151 640.3 158.8 686C166.7 731.7 148.3 777.3 144.8 823C141.3 868.7 152.7 914.3 158.3 937.2L164 960L0 960L0 937.2C0 914.3 0 868.7 0 823C0 777.3 0 731.7 0 686C0 640.3 0 594.7 0 548.8C0 503 0 457 0 411.2C0 365.3 0 319.7 0 274C0 228.3 0 182.7 0 137C0 91.3 0 45.7 0 22.8L0 0Z" fill="#0066FF" stroke-linecap="round" stroke-linejoin="miter"></path></svg>