<svg id="visual" viewBox="0 0 960 540" width="960" height="540" xmlns="http://www.w3.org/2000/svg" xmlns:xlink="http://www.w3.org/1999/xlink" version="1.1"><rect x="0" y="0" width="960" height="540" fill="#002233"></rect><path d="M256 0L269 12.8C282 25.7 308 51.3 293.2 77C278.3 102.7 222.7 128.3 226.5 154C230.3 179.7 293.7 205.3 290.3 231.2C287 257 217 283 212.2 308.8C207.3 334.7 267.7 360.3 281.7 386C295.7 411.7 263.3 437.3 257.2 463C251 488.7 271 514.3 281 527.2L291 540L0 540L0 527.2C0 514.3 0 488.7 0 463C0 437.3 0 411.7 0 386C0 360.3 0 334.7 0 308.8C0 283 0 257 0 231.2C0 205.3 0 179.7 0 154C0 128.3 0 102.7 0 77C0 51.3 0 25.7 0 12.8L0 0Z" fill="#0066FF" stroke-linecap="round" stroke-linejoin="miter"></path></svg>